# Blender v3.1.2 OBJ File: 'cenario-jogo.blend1'
# www.blender.org
v 0.003054 0.501378 -4.877936
v 0.003054 -0.424105 -4.877936
v -4.219164 -0.424105 -2.437053
v -4.219164 0.501378 -2.437053
v -4.216408 0.501378 2.439937
v -4.216408 -0.424105 2.439937
v 0.008570 -0.424105 4.876041
v 0.008568 0.501378 4.876043
v 2.809385 0.500556 -1.621705
v 2.809385 -0.423283 -1.621705
v 0.003980 0.500556 -3.239292
v 0.003980 -0.423283 -3.239292
v -2.799594 0.500556 -1.618534
v -2.799594 -0.423283 -1.618534
v -2.797764 0.500556 1.619812
v -2.797764 -0.423283 1.619812
v 0.007642 0.500556 3.237399
v 0.007642 -0.423283 3.237399
v 2.811216 0.500556 1.616641
v 2.811216 -0.423283 1.616641
v 2.810606 -0.423283 0.327884
v 2.809995 -0.423283 -0.326138
v -1.117430 -0.423283 -2.591141
v -1.683706 -0.423283 -2.263497
v -1.683706 0.500556 -2.263496
v -1.117430 0.500556 -2.591141
v -1.684304 -0.423283 2.261963
v -1.117792 -0.423283 2.588335
v -1.117791 0.500556 2.588335
v -1.684304 0.500556 2.261963
v 2.809995 0.500556 -0.326138
v 2.810606 0.500556 0.327884
v 4.230788 0.501378 2.435162
v 4.228030 0.501378 -2.441830
v 4.228030 -0.424105 -2.441830
v 4.230790 -0.424105 2.435159
v 4.229869 0.501378 0.600189
v 4.228950 0.501378 -0.600048
v 4.228950 -0.424105 -0.600048
v 4.229869 -0.424105 0.600189
v -2.629758 0.501378 3.354928
v -1.590055 0.501378 3.954139
v -1.590055 -0.424105 3.954139
v -2.629759 -0.424105 3.354928
v -1.591238 0.501378 -3.956410
v -2.630395 0.501378 -3.355391
v -2.630395 -0.424105 -3.355391
v -1.591238 -0.424105 -3.956410
v 4.228030 0.268558 -2.441830
v 0.003054 0.268558 -4.877936
v -4.219164 0.268558 -2.437053
v -4.216408 0.268558 2.439937
v 0.008568 0.268558 4.876043
v 4.230788 0.268558 2.435162
v 4.229869 0.268558 0.600189
v 4.228950 0.268558 -0.600048
v -2.629759 0.268558 3.354928
v -1.590055 0.268558 3.954139
v -1.591238 0.268558 -3.956410
v -2.630395 0.268558 -3.355391
vt 0.761873 0.204039
vt 0.993557 0.391410
vt 0.993551 0.005803
vt 0.232070 0.614156
vt 0.000161 0.435923
vt 0.232070 0.391410
vt 0.000140 0.801431
vt 0.232070 0.999763
vt 0.507391 0.404806
vt 0.548972 0.005497
vt 0.548972 0.404806
vt 0.761873 0.204039
vt 0.993557 0.391410
vt 0.993551 0.005803
vt 0.232022 0.614156
vt 0.000161 0.435923
vt 0.231974 0.391410
vt 0.000140 0.801431
vt 0.232070 0.999763
vt 0.507391 0.404806
vt 0.548972 0.005602
vt 0.548972 0.404806
vt 0.253301 0.351760
vt 0.485372 0.999856
vt 0.485372 0.351772
vt 0.253435 0.429178
vt 0.485358 0.178845
vt 0.485358 0.429178
vt 0.253301 0.999855
vt 0.485372 0.351784
vt 0.485372 0.999868
vt 0.485358 0.429178
vt 0.253435 0.178845
vt 0.485358 0.178845
vt 0.253301 0.351741
vt 0.485372 0.999837
vt 0.485372 0.351754
vt 0.485358 0.576698
vt 0.253435 0.827030
vt 0.485358 0.827030
vt 0.232070 0.999674
vt 0.000172 0.204039
vt 0.231926 0.005804
vt 0.231974 0.391410
vt 0.000172 0.204529
vt 0.231925 0.005803
vt 0.993564 0.614156
vt 0.761802 0.801431
vt 0.993570 0.999763
vt 0.993551 0.005554
vt 0.761802 0.801685
vt 0.993570 0.999912
vt 0.993551 0.005554
vt 0.761802 0.801685
vt 0.993570 0.999912
vt 0.993564 0.614156
vt 0.761802 0.801431
vt 0.993570 0.999763
vt 0.000172 0.204039
vt 0.231925 0.005803
vt 0.761873 0.204617
vt 0.993570 0.999912
vt 0.993551 0.005554
vt 0.000140 0.801431
vt 0.231925 0.005803
vt 0.232070 0.999763
vt 0.000140 0.801431
vt 0.231925 0.005803
vt 0.232070 0.999763
vt 0.993563 0.614156
vt 0.761802 0.801431
vt 0.993570 0.999763
vt 0.000172 0.204039
vt 0.231926 0.005803
vt 0.369402 0.999516
vt 0.253780 0.005946
vt 0.369467 0.005947
vt 0.369401 0.999516
vt 0.253780 0.005946
vt 0.369467 0.005947
vt 0.369467 0.005947
vt 0.253721 0.999549
vt 0.369402 0.999516
vt 0.761873 0.204039
vt 0.993557 0.391410
vt 0.993551 0.005803
vt 0.548970 0.600615
vt 0.739532 0.999938
vt 0.548970 0.999938
vt 0.548972 0.005602
vt 0.739479 0.404806
vt 0.548972 0.404806
vt 0.761849 0.435923
vt 0.000140 0.800942
vt 0.232022 0.614156
vt 0.232070 0.999763
vt 0.000161 0.435923
vt 0.485359 0.827030
vt 0.253435 0.576697
vt 0.485359 0.576698
vt 0.253435 0.429178
vt 0.761850 0.435923
vt 0.485358 0.827030
vt 0.253435 0.576697
vt 0.485358 0.576698
vt 0.507351 0.999938
vt 0.548970 0.600615
vt 0.548970 0.999938
vt 0.507391 0.600615
vt 0.761850 0.435923
vt 0.485358 0.178845
vt 0.253435 0.429178
vt 0.485358 0.429178
vt 0.253435 0.576697
vt 0.507351 0.999938
vt 0.548970 0.600615
vt 0.548970 0.999938
vt 0.507391 0.600615
vt 0.739479 0.600615
vt 0.739532 0.999966
vt 0.739479 0.600615
vt 0.739532 0.999938
vt 0.507391 0.404806
vt 0.507391 0.600615
vt 0.507351 0.999938
vt 0.485153 0.005948
vt 0.485082 0.999483
vt 0.485081 0.999483
vt 0.485153 0.005948
vt 0.485082 0.999483
vt 0.485153 0.005948
vt 0.739479 0.404806
vt 0.739479 0.005602
vt 0.739479 0.005497
vt 0.739479 0.404806
vt 0.000151 0.569578
vt 0.507391 0.005602
vt 0.000151 0.569578
vt 0.507391 0.005602
vt 0.253301 0.999843
vt 0.253435 0.178845
vt 0.253301 0.351772
vt 0.253301 0.999824
vt 0.000140 0.801431
vt 0.761826 0.569578
vt 0.761873 0.204617
vt 0.761873 0.204617
vt 0.761826 0.569578
vt 0.761802 0.801685
vt 0.000172 0.204039
vt 0.000172 0.204039
vt 0.761826 0.569578
vt 0.253721 0.999549
vt 0.253721 0.999548
vt 0.253780 0.005946
vt 0.739479 0.600615
vt 0.739479 0.005602
vt 0.000151 0.569578
vt 0.253434 0.827030
vt 0.253435 0.827030
vt 0.253435 0.178845
vt 0.507391 0.005602
vn -0.0003 -0.8384 -0.5450
vn 0.3538 -0.7073 0.6120
vn 0.0003 -0.6102 0.7923
vn 0.2236 0.8947 0.3868
vn -0.3541 0.7070 -0.6123
vn 0.2236 0.8946 0.3869
vn -0.4721 0.8384 -0.2722
vn 0.2235 0.8947 0.3868
vn 0.6865 0.6102 0.3956
vn 0.8663 0.0000 0.4995
vn 0.5004 0.0000 0.8658
vn -0.4719 -0.8384 0.2728
vn 0.3531 -0.7073 -0.6124
vn 0.6860 -0.6102 -0.3964
vn 0.2232 0.8947 -0.3870
vn -0.3532 0.7070 0.6128
vn 0.2232 0.8946 -0.3871
vn 0.0003 0.8384 0.5450
vn -0.0006 0.6102 -0.7923
vn 0.3530 -0.7073 -0.6124
vn -0.0005 0.0000 -1.0000
vn 0.4996 0.0000 -0.8663
vn -0.4718 -0.8384 0.2727
vn -0.4721 0.8385 -0.2722
vn -0.4718 0.8384 0.2728
vn -0.3532 -0.7070 0.6127
vn -0.4718 0.8384 0.2727
vn -0.3533 0.7070 0.6127
vn 0.4721 -0.8384 0.2723
vn 0.0003 0.8385 0.5450
vn 0.4721 0.8384 0.2723
vn 0.7073 0.7070 -0.0005
vn 0.4721 -0.8384 0.2722
vn 0.4718 0.8385 -0.2728
vn -0.0003 0.8384 -0.5450
vn -0.3541 0.7070 -0.6122
vn 0.0004 0.6102 0.7923
vn 0.4717 0.8384 -0.2730
vn -0.6859 0.6102 0.3965
vn -0.4468 0.8946 0.0003
vn 0.4723 0.8384 0.2720
vn -0.6863 0.6102 -0.3958
vn 0.0001 -0.8384 0.5450
vn -0.0004 -0.6102 -0.7923
vn 0.6863 -0.6102 0.3958
vn -0.4720 -0.8384 0.2726
vn 0.6860 -0.6102 -0.3965
vn 0.4720 -0.8384 0.2725
vn -0.6863 -0.6102 -0.3958
vn -0.4720 -0.8384 -0.2724
vn -0.4717 0.8384 0.2730
vn 0.6859 0.6102 -0.3965
vn 0.4719 -0.8384 -0.2727
vn 0.0004 -0.6102 0.7923
vn -0.6860 -0.6102 0.3964
vn -0.4719 0.8384 0.2728
vn 0.6863 0.6102 0.3958
vn 0.6858 0.6102 -0.3967
vn 0.4722 0.8384 0.2723
vn -0.0004 0.6102 -0.7923
vn -0.6865 0.6102 -0.3956
vn -0.7069 -0.7073 0.0004
vn 0.4719 -0.8384 -0.2726
vn -0.6860 -0.6102 0.3965
vn -0.0006 0.8384 -0.5450
vn -0.8658 0.0000 0.5005
vn 0.0005 0.0000 1.0000
vn 0.6859 -0.6102 -0.3965
vn 0.8658 0.0000 -0.5005
vn -0.6864 -0.6102 -0.3958
vn -0.8663 0.0000 -0.4995
vn 0.4722 -0.8384 0.2723
vn -0.6863 -0.6102 -0.3959
vn -1.0000 -0.0000 0.0005
vn -0.8663 -0.0000 -0.4996
vn -0.4468 0.8947 0.0002
vn 0.7073 -0.7070 -0.0005
vn 0.4718 0.8384 -0.2728
vn -0.4467 0.8947 0.0002
vn -0.6858 0.6102 0.3967
vn -0.4468 0.8946 0.0002
vn 0.4718 0.8384 -0.2727
vn 0.7074 -0.7069 -0.0003
vn 0.7074 0.7069 -0.0005
vn 0.7073 -0.7070 -0.0007
vn -0.3532 -0.7070 0.6128
vn -0.3534 -0.7069 0.6128
vn -0.3532 0.7069 0.6128
vn -0.3531 -0.7070 0.6128
vn -0.3532 0.7070 0.6127
vn 0.8658 -0.0000 -0.5004
vn 0.4996 0.0000 -0.8662
vn 0.4993 0.0000 -0.8664
vn -0.3541 -0.7070 -0.6123
vn -0.3540 -0.7069 -0.6124
vn -0.3541 0.7069 -0.6123
vn -0.3542 -0.7070 -0.6122
vn -0.3540 0.7070 -0.6123
vn 0.3539 -0.7073 0.6120
vn 0.5007 0.0000 0.8656
vn -0.7069 -0.7073 0.0005
vn -1.0000 -0.0000 0.0004
vn -0.0004 0.6101 -0.7923
vn -0.6864 0.6102 -0.3958
vn 0.6864 0.6101 0.3958
vn -0.6859 0.6101 0.3965
vn 0.6863 0.6101 0.3958
vn -0.3541 -0.7070 -0.6122
vn -0.3541 0.7068 -0.6123
vn -0.4721 0.8384 -0.2723
vn -0.3541 0.7068 -0.6124
vn 0.3539 -0.7073 0.6119
vn 0.6864 -0.6101 0.3958
vn -0.3533 0.7068 0.6128
vn -0.0004 -0.6101 -0.7923
vn -0.4721 -0.8384 -0.2722
vn -0.4719 -0.8384 0.2727
vn -0.4719 0.8384 0.2727
vn 0.0003 -0.8384 0.5450
vn 0.7073 0.7070 -0.0003
vn 0.4718 -0.8384 -0.2727
vn -0.3539 0.7070 -0.6123
vn 0.0006 0.6102 0.7923
vn -0.3533 -0.7068 0.6128
vn 0.6863 -0.6102 0.3959
vn -0.4721 -0.8384 -0.2723
vn -0.0003 -0.6102 -0.7923
vn 0.4722 -0.8384 0.2722
vn -0.3541 -0.7068 -0.6124
vn 0.4718 -0.8384 -0.2728
vn -0.0001 -0.8384 -0.5450
vn -0.4723 0.8384 -0.2720
vn 0.4722 0.8384 0.2722
vn 0.0006 0.8384 0.5450
vn 0.7074 -0.7068 -0.0005
vn -0.6859 -0.6101 0.3965
vn 0.7074 0.7068 -0.0005
vn 0.4718 0.8385 -0.2727
vn 0.7074 -0.7069 -0.0004
vn 0.7074 0.7069 -0.0007
vn 0.7074 -0.7069 -0.0005
vn -0.3533 -0.7069 0.6128
vn -0.3531 0.7069 0.6129
vn 0.6860 -0.6101 -0.3965
vn 0.3532 -0.7073 -0.6124
vn 0.3530 -0.7073 -0.6125
vn -0.3541 -0.7068 -0.6123
vn -0.4721 0.8385 -0.2723
vn -0.3541 -0.7069 -0.6124
vn -0.3543 0.7069 -0.6123
vn -0.3541 -0.7069 -0.6123
vn -0.3540 -0.7070 -0.6123
vn 0.0005 -0.6102 0.7923
vn -1.0000 -0.0000 0.0008
s off
f 11/1/1 45/2/2 1/3/3
f 47/4/4 23/5/5 48/6/6
f 14/7/7 47/4/8 3/8/9
f 46/9/2 51/10/10 60/11/11
f 15/12/12 41/13/13 5/14/14
f 43/15/15 27/16/16 44/17/17
f 18/18/18 43/15/15 7/19/19
f 42/20/20 53/21/21 58/22/22
f 15/23/23 14/24/24 16/25/25
f 30/26/26 16/27/27 27/28/28
f 19/29/29 18/30/30 20/31/31
f 21/32/32 19/33/33 20/34/31
f 11/35/1 10/36/34 12/37/35
f 23/38/36 11/39/1 12/40/35
f 2/41/37 10/42/38 35/43/39
f 40/44/40 20/45/41 36/46/42
f 42/47/13 17/48/43 8/49/44
f 4/50/45 15/51/46 5/52/47
f 8/53/44 19/54/48 33/55/49
f 46/56/2 13/57/50 4/58/45
f 44/17/17 16/59/51 6/60/52
f 9/61/53 1/62/54 34/63/55
f 16/64/56 3/65/57 6/66/58
f 20/67/59 7/68/60 36/69/61
f 38/70/62 9/71/63 34/72/64
f 48/6/6 12/73/65 2/74/37
f 49/75/66 1/76/54 50/77/67
f 51/78/10 5/79/68 52/80/69
f 53/81/21 33/82/70 54/83/71
f 19/84/72 37/85/62 33/86/73
f 55/87/74 36/88/42 54/89/75
f 49/90/66 39/91/76 56/92/74
f 32/93/77 38/70/62 37/85/62
f 10/94/78 39/95/79 35/96/80
f 39/95/79 21/97/32 40/44/81
f 10/98/82 31/99/83 22/100/84
f 22/100/84 32/101/85 21/32/32
f 30/102/86 42/47/20 41/13/13
f 18/103/18 29/104/87 28/105/88
f 28/105/88 30/26/89 27/28/90
f 5/106/68 57/107/22 52/108/91
f 41/109/13 58/22/92 57/107/93
f 26/110/94 46/56/2 45/2/2
f 14/111/7 25/112/95 24/113/96
f 24/113/96 26/114/97 23/38/98
f 1/115/54 59/116/11 50/117/67
f 45/118/99 60/11/100 59/116/100
f 50/117/67 48/119/6 2/120/37
f 52/108/91 44/121/17 6/122/52
f 38/123/101 49/90/66 56/92/74
f 37/124/101 54/89/75 33/125/49
f 38/123/62 55/87/102 37/124/62
f 7/126/103 54/83/71 36/127/104
f 3/128/105 52/80/69 6/129/52
f 35/130/106 50/77/67 2/131/37
f 43/132/15 53/21/21 7/133/103
f 60/11/11 3/134/107 47/135/4
f 11/1/1 26/110/108 45/2/2
f 47/4/4 24/136/109 23/5/36
f 14/7/110 24/136/111 47/4/4
f 46/9/112 4/137/113 51/10/10
f 15/12/12 30/102/86 41/13/13
f 43/15/15 28/138/114 27/16/16
f 18/18/18 28/138/114 43/15/15
f 42/20/20 8/139/115 53/21/21
f 15/23/23 13/140/116 14/24/24
f 30/26/26 15/141/117 16/27/118
f 19/29/29 17/142/119 18/30/30
f 21/32/120 32/101/77 19/33/29
f 11/35/1 9/143/121 10/36/34
f 23/38/122 26/114/108 11/39/1
f 2/41/123 12/144/35 10/42/78
f 40/44/81 21/97/32 20/45/31
f 42/47/13 29/145/124 17/48/119
f 4/50/125 13/146/126 15/51/12
f 8/53/127 17/147/119 19/54/128
f 46/56/2 25/148/129 13/57/126
f 44/17/17 27/16/16 16/59/56
f 9/61/130 11/149/131 1/62/54
f 16/64/56 14/150/132 3/65/57
f 20/67/133 18/151/134 7/68/60
f 38/70/62 31/152/135 9/71/121
f 48/6/6 23/5/36 12/73/35
f 49/75/66 34/153/136 1/76/54
f 51/78/10 4/154/113 5/79/68
f 53/81/21 8/155/115 33/82/49
f 19/84/29 32/93/77 37/85/62
f 55/87/74 40/156/81 36/88/42
f 49/90/66 35/157/106 39/91/76
f 32/93/77 31/152/135 38/70/62
f 10/94/82 22/158/137 39/95/79
f 39/95/79 22/158/137 21/97/32
f 10/98/138 9/159/121 31/99/139
f 22/100/140 31/99/141 32/101/77
f 30/102/86 29/145/124 42/47/20
f 18/103/18 17/160/119 29/104/142
f 28/105/143 29/104/142 30/26/26
f 5/106/144 41/109/145 57/107/22
f 41/109/13 42/20/146 58/22/93
f 26/110/108 25/148/147 46/56/2
f 14/111/148 13/161/126 25/112/149
f 24/113/150 25/112/151 26/114/152
f 1/115/153 45/118/2 59/116/11
f 45/118/2 46/9/112 60/11/100
f 50/117/67 59/116/11 48/119/6
f 52/108/91 57/107/22 44/121/17
f 38/123/101 34/162/136 49/90/66
f 37/124/62 55/87/74 54/89/75
f 38/123/101 56/92/154 55/87/102
f 7/126/103 53/81/21 54/83/71
f 3/128/105 51/78/10 52/80/69
f 35/130/106 49/75/66 50/77/67
f 43/132/15 58/22/22 53/21/21
f 60/11/11 51/10/10 3/134/105
