# Blender v3.1.2 OBJ File: 'objects.blend1'
# www.blender.org
v 0.053604 -0.423105 0.600000
v 0.053604 -0.423105 -0.600000
v 0.053604 0.268558 -0.600000
v 0.053604 0.268558 0.600000
v -0.053452 -0.423105 -0.600000
v -0.053452 -0.423105 0.600000
v -0.053452 0.268558 -0.600000
v -0.053452 0.268558 0.600000
vt 0.385604 0.075780
vt 0.385604 0.924220
vt 0.719447 0.924220
vt 0.000088 0.924220
vt 0.333931 0.924220
vt 0.333931 0.075780
vt 0.385604 0.999912
vt 0.719447 0.075780
vt 0.719447 0.000088
vt 0.771120 0.924219
vt 0.000088 0.075780
vt 0.719447 0.999912
vt 0.385604 0.000088
vt 0.771120 0.075780
vn 0.5774 -0.5773 0.5774
vn 0.5774 -0.5773 -0.5774
vn 0.5774 0.5773 -0.5774
vn -0.5774 0.5773 -0.5774
vn -0.5774 -0.5774 -0.5773
vn -0.5774 -0.5773 0.5774
vn 0.5773 -0.5774 -0.5774
vn -0.5773 -0.5774 -0.5774
vn 0.5773 0.5774 0.5774
vn -0.5773 0.5774 0.5774
vn 0.5774 -0.5774 -0.5773
vn 0.5773 -0.5774 0.5774
vn -0.5774 -0.5774 0.5773
vn 0.5774 0.5774 0.5773
vn 0.5773 0.5774 -0.5774
vn -0.5774 0.5774 -0.5773
vn 0.5774 0.5773 0.5774
vn -0.5774 0.5773 -0.5773
vn -0.5774 0.5774 0.5773
vn -0.5774 -0.5773 -0.5774
vn -0.5773 0.5774 -0.5774
vn -0.5774 0.5773 0.5774
vn -0.5773 -0.5774 0.5774
s off
f 1/1/1 2/2/2 3/3/3
f 7/4/4 5/5/5 6/6/6
f 3/3/3 2/2/7 5/7/8
f 1/1/1 4/8/9 8/9/10
f 2/2/11 1/1/12 6/6/13
f 4/8/14 3/3/15 7/10/16
f 1/1/1 3/3/3 4/8/17
f 7/4/18 6/6/6 8/11/19
f 3/3/15 5/7/20 7/12/21
f 1/1/12 8/9/22 6/13/23
f 2/2/11 6/6/13 5/5/8
f 4/8/14 7/10/16 8/14/10
