# Blender v3.1.2 OBJ File: 'objects.blend1'
# www.blender.org
v -1.000936 -1.555091 1.000000
v -1.000936 0.945758 1.000000
v -1.639849 -1.555091 -1.000000
v -1.639849 1.555091 -1.000000
v 1.000936 -1.555091 1.000000
v 1.000936 0.945758 1.000000
v 1.639849 -1.555091 -1.000000
v 1.639849 1.555091 -1.000000
vt 0.439399 0.599773
vt 0.000724 0.999360
vt 0.000616 0.599783
vt 0.437639 0.150657
vt 0.000149 0.550746
vt 0.000213 0.150392
vt 0.000616 0.599783
vt 0.439578 0.999517
vt 0.000724 0.999360
vt 0.500715 0.999498
vt 0.939502 0.599715
vt 0.939659 0.999481
vt 0.437564 0.550161
vt 0.001026 0.151218
vt 0.437906 0.150598
vt 0.526601 0.028499
vt 0.889495 0.445433
vt 0.526503 0.551920
vt 0.439578 0.999517
vt 0.437915 0.550642
vt 0.439399 0.599773
vt 0.500654 0.599921
vt 0.000498 0.550591
vt 0.889595 0.127329
vn -0.4807 0.4864 0.7296
vn -0.6675 -0.5628 -0.4875
vn -0.4738 -0.5954 0.6489
vn -0.6429 0.6386 -0.4230
vn 0.6675 -0.5628 -0.4875
vn 0.4807 0.4865 0.7296
vn 0.4738 -0.5954 0.6489
vn 0.4807 0.4864 0.7296
vn -0.4738 -0.5954 0.6488
vn 0.4739 -0.5954 0.6488
vn -0.4739 -0.5954 0.6488
vn -0.6675 -0.5628 -0.4876
vn 0.4808 0.4864 0.7295
vn 0.6429 0.6386 -0.4230
vn -0.4808 0.4865 0.7295
vn -0.6429 0.6385 -0.4230
vn 0.4808 0.4865 0.7295
vn 0.4808 0.4864 0.7296
vn -0.4807 0.4865 0.7296
vn 0.6676 -0.5628 -0.4874
s off
f 2/1/1 3/2/2 1/3/3
f 4/4/4 7/5/5 3/6/2
f 7/7/5 6/8/6 5/9/7
f 6/10/8 1/11/9 5/12/10
f 7/13/5 1/14/11 3/15/12
f 4/16/4 6/17/13 8/18/14
f 2/1/15 4/19/4 3/2/2
f 4/4/16 8/20/14 7/5/5
f 7/7/5 8/21/14 6/8/17
f 6/10/18 2/22/19 1/11/9
f 7/13/20 5/23/7 1/14/11
f 4/16/4 2/24/1 6/17/18
