# Blender v3.1.2 OBJ File: 'objects.blend1'
# www.blender.org
v 3.026037 0.929991 -0.857869
v 3.026037 -0.929991 -0.857869
v 3.026037 0.929991 0.857869
v 3.026037 -0.929991 0.857869
v -3.026037 0.929991 -0.857869
v -3.026037 -0.929991 -0.857869
v -3.026037 0.929991 0.857869
v -3.026037 -0.929991 0.857869
vt 0.439433 0.613980
vt 0.717761 0.909916
vt 0.428576 0.892241
vt 0.405877 0.571873
vt 0.079915 0.832023
vt 0.091045 0.477254
vt 0.844890 0.616368
vt 0.435587 0.915963
vt 0.435587 0.576528
vt 0.639400 0.924856
vt 0.430455 0.496691
vt 0.665639 0.509938
vt 0.625000 0.500000
vt 0.375000 0.750000
vt 0.375000 0.500000
vt 0.805307 0.663334
vt 0.452910 0.756466
vt 0.457362 0.633454
vt 0.728413 0.627747
vt 0.383617 0.849452
vt 0.860472 0.945842
vt 0.397231 0.901916
vt 0.625000 0.750000
vt 0.798629 0.788836
vn 0.0000 1.0000 0.0000
vn 0.0000 0.0000 1.0000
vn -1.0000 0.0000 0.0000
vn 0.0000 -1.0000 0.0000
vn 1.0000 0.0000 0.0000
vn 0.0000 0.0000 -1.0000
s off
f 5/1/1 3/2/1 1/3/1
f 3/4/2 8/5/2 4/6/2
f 7/7/3 6/8/3 8/9/3
f 2/10/4 8/11/4 6/12/4
f 1/13/5 4/14/5 2/15/5
f 5/16/6 2/17/6 6/18/6
f 5/1/1 7/19/1 3/2/1
f 3/4/2 7/20/2 8/5/2
f 7/7/3 5/21/3 6/8/3
f 2/10/4 4/22/4 8/11/4
f 1/13/5 3/23/5 4/14/5
f 5/16/6 1/24/6 2/17/6
